<?xml version="1.0" encoding="UTF-8"?>
<svg width="52px" height="60px" viewBox="0 0 52 60" version="1.1" xmlns="http://www.w3.org/2000/svg" xmlns:xlink="http://www.w3.org/1999/xlink">
    <title>3CDA39FA-061D-4DDC-80E2-AD7563622139@1.00x</title>
    <g id="1.-Atoms" stroke="none" stroke-width="1" fill="none" fill-rule="evenodd">
        <g id="Desktop/Icons" transform="translate(-889.000000, -1787.000000)" fill="#000000" fill-rule="nonzero">
            <g id="icon-copy" transform="translate(889.000000, 1787.000000)">
                <path d="M38.1818182,0 L5.45454545,0 C2.45454545,0 0,2.45454545 0,5.45454545 L0,43.6363636 L5.45454545,43.6363636 L5.45454545,5.45454545 L38.1818182,5.45454545 L38.1818182,0 Z M46.3636364,10.9090909 L16.3636364,10.9090909 C13.3636364,10.9090909 10.9090909,13.3636364 10.9090909,16.3636364 L10.9090909,54.5454545 C10.9090909,57.5454545 13.3636364,60 16.3636364,60 L46.3636364,60 C49.3636364,60 51.8181818,57.5454545 51.8181818,54.5454545 L51.8181818,16.3636364 C51.8181818,13.3636364 49.3636364,10.9090909 46.3636364,10.9090909 Z M46.3636364,54.5454545 L16.3636364,54.5454545 L16.3636364,16.3636364 L46.3636364,16.3636364 L46.3636364,54.5454545 Z" id="Shape"></path>
            </g>
        </g>
    </g>
</svg>