<?xml version="1.0" encoding="UTF-8"?>
<svg width="60px" height="60px" viewBox="0 0 60 60" version="1.1" xmlns="http://www.w3.org/2000/svg" xmlns:xlink="http://www.w3.org/1999/xlink">
    <title>4B62E0B9-B80E-4077-ADDA-AC5F1092F212@2x</title>
    <g id="1.-Atoms" stroke="none" stroke-width="1" fill="none" fill-rule="evenodd">
        <g id="Desktop/Icons" transform="translate(-79.000000, -1948.000000)" fill="#000000" fill-rule="nonzero">
            <g id="icon-download" transform="translate(79.000000, 1948.000000)">
                <path d="M54.1104,40.6511752 C52.5039141,40.6511752 51.2016,41.9535141 51.2016,43.56 L51.2016,48.012 C51.198953,50.0928485 49.5120498,51.778678 47.4312,51.78 L9.588,51.78 C7.50715025,51.778678 5.82024697,50.0928485 5.8176,48.012 L5.8176,43.56 C5.8176,41.9535141 4.51528588,40.6511752 2.9088,40.6511752 C1.30231412,40.6511752 -1.18838273e-12,41.9535141 -1.18838273e-12,43.56 L-1.18838273e-12,48.012 C-1.18838273e-12,53.3092508 4.2907533,57.6053784 9.588,57.612 L47.4312,57.612 C52.7331336,57.612 57.0312,53.3139336 57.0312,48.012 L57.0312,43.56 C57.0312,42.7864546 56.7230979,42.0447656 56.1749939,41.4989135 C55.62689,40.9530614 54.8839388,40.6480088 54.1104,40.6511752 Z" id="Path"></path>
                <path d="M28.5096,1.62536651e-13 C25.9394877,1.62536651e-13 23.856,2.08348769 23.856,4.6536 L23.856,26.412 C23.856,26.7433708 23.5873708,27.012 23.256,27.012 L16.8744,27.012 C15.9627039,27.0123722 15.1351307,27.5448927 14.7570121,28.3744808 C14.3788936,29.2040688 14.519828,30.1780261 15.1176,30.8664 L26.7528,44.2488 C27.194517,44.7580475 27.8354733,45.0505663 28.5096,45.0505663 C29.1837267,45.0505663 29.824683,44.7580475 30.2664,44.2488 L41.9016,30.8664 C42.499372,30.1780261 42.6403064,29.2040688 42.2621879,28.3744808 C41.8840693,27.5448927 41.0564961,27.0123722 40.1448,27.012 L33.7632,27.012 C33.4318292,27.012 33.1632,26.7433708 33.1632,26.412 L33.1632,4.6536 C33.1632,2.08348769 31.0797123,1.62536651e-13 28.5096,1.62536651e-13 Z" id="Path"></path>
            </g>
        </g>
    </g>
</svg>