<?xml version="1.0" encoding="utf-8"?>
<!-- Generator: Adobe Illustrator 19.2.1, SVG Export Plug-In . SVG Version: 6.00 Build 0)  -->
<svg version="1.1" id="Layer_1" xmlns="http://www.w3.org/2000/svg" xmlns:xlink="http://www.w3.org/1999/xlink" x="0px" y="0px"
	 viewBox="0 0 100 125" style="enable-background:new 0 0 100 125;" xml:space="preserve">
<path d="M22.5,15.3h10.7c2.8,0,5.1-2.3,5.1-5.1S36,5,33.2,5L10.1,5l0,0c-0.3,0-0.7,0-1,0.1C9,5.1,8.8,5.2,8.7,5.2
	C8.5,5.3,8.3,5.3,8.2,5.4C8,5.5,7.8,5.6,7.7,5.6C7.6,5.7,7.4,5.8,7.3,5.9c-0.6,0.4-1,0.9-1.4,1.4C5.8,7.4,5.7,7.5,5.7,7.7
	C5.6,7.8,5.5,8,5.4,8.2C5.3,8.3,5.3,8.5,5.2,8.7c0,0.1-0.1,0.3-0.1,0.4C5,9.5,5,9.8,5,10.1v23.1c0,2.8,2.3,5.1,5.1,5.1
	s5.1-2.3,5.1-5.1V22.5l23.9,23.9c1,1,2.3,1.5,3.6,1.5s2.6-0.5,3.6-1.5c2-2,2-5.2,0-7.2L22.5,15.3z"/>
<path d="M61.7,89.9c0,2.8,2.3,5.1,5.1,5.1h23.1c0.3,0,0.7,0,1-0.1c0.2,0,0.3-0.1,0.4-0.1c0.2-0.1,0.3-0.1,0.5-0.2
	c0.2-0.1,0.3-0.2,0.5-0.3c0.1-0.1,0.3-0.1,0.4-0.2c0.6-0.4,1-0.9,1.4-1.4c0.1-0.1,0.1-0.2,0.2-0.4c0.1-0.2,0.2-0.3,0.3-0.5
	c0.1-0.2,0.1-0.3,0.2-0.5c0-0.2,0.1-0.3,0.1-0.5c0.1-0.3,0.1-0.7,0.1-1l0-23.1c0-2.8-2.3-5.1-5.1-5.1s-5.1,2.3-5.1,5.1l0,10.7
	L60.9,53.6c-2-2-5.2-2-7.2,0c-2,2-2,5.2,0,7.2l23.9,23.9H66.8C64,84.7,61.7,87,61.7,89.9z"/>
</svg>
