<?xml version="1.0" encoding="UTF-8"?>
<svg width="40px" height="28px" viewBox="0 0 40 28" version="1.1" xmlns="http://www.w3.org/2000/svg" xmlns:xlink="http://www.w3.org/1999/xlink">
    <title>BA3B97DA-1225-44E3-ABE1-00581B6ADFD4@2.00x</title>
    <g id="Page-1" stroke="none" stroke-width="1" fill="none" fill-rule="evenodd">
        <g id="2.0" transform="translate(-1084.000000, -510.000000)">
            <g id="Group-8" transform="translate(1046.000000, 461.000000)">
                <g id="Group-5">
                    <g id="Group-6">
                        <g id="Group-2" transform="translate(10.000000, 33.000000)">
                            <g id="Chrome-Enterprise">
                                <g id="chrome-enterprise" transform="translate(28.000000, 16.000000)">
                                    <g id="iconfinder_Google_Chrome_1298719">
                                        <rect id="Rectangle" x="0" y="0" width="28" height="28"></rect>
                                        <g id="Google_Chrome_1_">
                                            <path d="M3.3805625,4.87746875 C9.8888125,-2.69696875 21.9561563,-1.2018125 26.4674375,7.64596875 C23.2918438,7.6470625 18.319,7.64509375 15.62575,7.64596875 C13.6723125,7.646625 12.4112187,7.60221875 11.0453438,8.32125 C9.43971875,9.1665 8.2280625,10.7331875 7.80521875,12.5735313 L3.3805625,4.87746875 Z" id="Path" fill="#EA4335"></path>
                                            <path d="M9.342375,13.9995625 C9.342375,16.5665938 11.4296875,18.6552188 13.9954063,18.6552188 C16.5609063,18.6552188 18.6482188,16.5668125 18.6482188,13.9995625 C18.6482188,11.4325313 16.5609063,9.34390625 13.9954063,9.34390625 C11.4296875,9.34390625 9.342375,11.4325313 9.342375,13.9995625 Z" id="Path" fill="#4285F4"></path>
                                            <path d="M15.8011875,20.0932812 C13.1895312,20.8694062 10.133375,20.008625 8.45928125,17.1189375 C7.18134375,14.9132812 3.8049375,9.0313125 2.27040625,6.356875 C-3.10428125,14.5947812 1.52796875,25.8208125 11.2855312,27.7368437 L15.8011875,20.0932812 Z" id="Path" fill="#34A853"></path>
                                            <path d="M18.3174688,9.34390625 C20.4927188,11.3669062 20.9665313,14.6429062 19.4930313,17.1830312 C18.382875,19.096875 14.84,25.076625 13.1228125,27.9722187 C23.176125,28.5919375 30.5049063,18.739 27.1945625,9.34390625 L18.3174688,9.34390625 Z" id="Path" fill="#FBBC05"></path>
                                        </g>
                                    </g>
                                    <circle id="Oval" fill="#FFFFFF" cx="31" cy="20" r="8"></circle>
                                    <g id="rating-star" transform="translate(25.000000, 13.000000)" fill="#54B570" fill-rule="nonzero">
                                        <path d="M14.721875,5.455625 C14.5851621,5.08832787 14.2350386,4.8442873 13.843125,4.843125 L10.03875,4.843125 C9.90607298,4.8432206 9.78779875,4.75952654 9.74375,4.634375 L8.378125,0.76375 C8.24114543,0.397399109 7.89112195,0.154583267 7.5,0.154583267 C7.10887805,0.154583267 6.75885457,0.397399109 6.621875,0.76375 L6.61875,0.77375 L5.25625,4.634375 C5.21227748,4.7593102 5.09432257,4.84295551 4.961875,4.843125 L1.15625,4.843125 C0.761652468,4.8428283 0.409109488,5.08964902 0.274382053,5.4605342 C0.139654617,5.83141938 0.251586964,6.24696501 0.554375,6.5 L3.794375,9.1875 C3.89357045,9.26981804 3.93204327,9.40459701 3.89125,9.526875 L2.53,13.60875 C2.40091072,13.9960188 2.53725425,14.4223033 2.86712221,14.6627785 C3.19699016,14.9032536 3.64454759,14.9026355 3.97375,14.66125 L7.315,12.21125 C7.42494963,12.1306965 7.57442537,12.1306965 7.684375,12.21125 L11.024375,14.660625 C11.3534512,14.9028432 11.8015048,14.9040267 12.1318561,14.6635504 C12.4622074,14.4230741 12.5987574,13.9963336 12.469375,13.60875 L11.108125,9.524375 C11.0673317,9.40209701 11.1058046,9.26731804 11.205,9.185 L14.45125,6.49375 C14.7501045,6.23861913 14.8581416,5.824186 14.721875,5.455625 Z" id="Path"></path>
                                    </g>
                                </g>
                            </g>
                        </g>
                    </g>
                </g>
            </g>
        </g>
    </g>
</svg>