<?xml version="1.0" encoding="UTF-8"?>
<svg width="32px" height="28px" viewBox="0 0 32 28" version="1.1" xmlns="http://www.w3.org/2000/svg" xmlns:xlink="http://www.w3.org/1999/xlink">
    <title>DB4A2593-911B-4FB3-84B3-98B60A9E060A@1.00x</title>
    <g id="v3-desktop/mockup" stroke="none" stroke-width="1" fill="none" fill-rule="evenodd">
        <g id="3.2" transform="translate(-1180.000000, -509.000000)" fill="#54B570" fill-rule="nonzero">
            <g id="Group-8" transform="translate(1046.000000, 461.000000)">
                <g id="embed-icon" transform="translate(134.000000, 48.000000)">
                    <path d="M27.7666667,0 L3.96666667,0 C1.77593716,0 0,1.790861 0,4 L0,24 C0,26.209139 1.77593716,28 3.96666667,28 L27.7666667,28 C29.9573962,28 31.7333333,26.209139 31.7333333,24 L31.7333333,4 C31.7333333,1.790861 29.9573962,0 27.7666667,0 Z M3.96666667,4.66666667 C3.96666667,3.930287 4.55864572,3.33333333 5.28888889,3.33333333 C6.01913206,3.33333333 6.61111111,3.930287 6.61111111,4.66666667 C6.61111111,5.40304633 6.01913206,6 5.28888889,6 C4.55864572,6 3.96666667,5.40304633 3.96666667,4.66666667 Z M7.93333333,4.66666667 C7.93333333,3.930287 8.52531239,3.33333333 9.25555556,3.33333333 C9.98579872,3.33333333 10.5777778,3.930287 10.5777778,4.66666667 C10.5777778,5.40304633 9.98579872,6 9.25555556,6 C8.52531239,6 7.93333333,5.40304633 7.93333333,4.66666667 Z M11.9,4.66666667 C11.9,3.930287 12.4919791,3.33333333 13.2222222,3.33333333 C13.9524654,3.33333333 14.5444444,3.930287 14.5444444,4.66666667 C14.5444444,5.40304633 13.9524654,6 13.2222222,6 C12.4919791,6 11.9,5.40304633 11.9,4.66666667 Z M29.0888889,24 C29.0888889,24.7363797 28.4969098,25.3333333 27.7666667,25.3333333 L3.96666667,25.3333333 C3.2364235,25.3333333 2.64444444,24.7363797 2.64444444,24 L2.64444444,10 C2.64444444,9.63181017 2.94043397,9.33333333 3.30555556,9.33333333 L28.4277778,9.33333333 C28.7928994,9.33333333 29.0888889,9.63181017 29.0888889,10 L29.0888889,24 Z" id="Shape"></path>
                    <g id="programming-hold-code" transform="translate(6.533333, 12.133333)">
                        <path d="M18.3017333,6.33453333 C18.5205356,6.11589141 18.6434709,5.81925309 18.6434709,5.50993333 C18.6434709,5.20061358 18.5205356,4.90397525 18.3017333,4.68533333 L14.5684,0.952 C14.2755653,0.648635603 13.8418297,0.526881758 13.4338992,0.63353453 C13.0259687,0.740187301 12.7073267,1.05864909 12.6004431,1.46651917 C12.4935596,1.87438925 12.615068,2.30819375 12.9182667,2.6012 L15.4933333,5.18 C15.6755116,5.36223326 15.6755116,5.6576334 15.4933333,5.83986667 L12.9182667,8.41866667 C12.4762602,8.87656682 12.4827883,9.60422334 12.9329391,10.0541195 C13.3830899,10.5040157 14.11075,10.5101322 14.5684,10.0678667 L18.3017333,6.33453333 Z" id="Path"></path>
                        <path d="M6.1684,0.952 C5.94972039,0.732911951 5.65288195,0.609795173 5.34333333,0.609795173 C5.03378472,0.609795173 4.73694627,0.732911951 4.51826667,0.952 L0.784933333,4.68533333 C0.566131088,4.90397525 0.443195779,5.20061358 0.443195779,5.50993333 C0.443195779,5.81925309 0.566131088,6.11589141 0.784933333,6.33453333 L4.51826667,10.0678667 C4.81110133,10.3712311 5.24483701,10.4929849 5.6527675,10.3863321 C6.06069799,10.2796794 6.37934,9.96121758 6.48622355,9.5533475 C6.5931071,9.14547742 6.47159867,8.71167292 6.1684,8.41866667 L3.5896,5.83986667 C3.40742176,5.6576334 3.40742176,5.36223326 3.5896,5.18 L6.1684,2.6012 C6.38720225,2.38255808 6.51013755,2.08591976 6.51013755,1.7766 C6.51013755,1.46728024 6.38720225,1.17064192 6.1684,0.952 Z" id="Path"></path>
                        <path d="M8.35706667,10.8490667 C8.44046061,10.8672458 8.52558115,10.8763212 8.61093333,10.8761362 C9.15718623,10.8754135 9.63005301,10.4963448 9.7496,9.96333333 L11.6162667,1.56333333 C11.7562156,0.932918709 11.3586146,0.308415649 10.7282,0.168466696 C10.0977854,0.0285177431 9.4732823,0.426118716 9.33333333,1.05653333 L7.46666667,9.45653333 C7.40001924,9.75927401 7.45639537,10.076091 7.62338733,10.3372566 C7.79037929,10.5984223 8.05430109,10.7825324 8.35706667,10.8490667 L8.35706667,10.8490667 Z" id="Path"></path>
                    </g>
                </g>
            </g>
        </g>
    </g>
</svg>