<?xml version="1.0" encoding="UTF-8"?>
<svg width="28px" height="28px" viewBox="0 0 28 28" version="1.1" xmlns="http://www.w3.org/2000/svg" xmlns:xlink="http://www.w3.org/1999/xlink">
    <title>2586E03B-6AE3-4B89-AD9D-15AC3989EC9E@1.00x</title>
    <g id="v3-desktop/mockup" stroke="none" stroke-width="1" fill="none" fill-rule="evenodd">
        <g id="3.2" transform="translate(-1087.000000, -510.000000)">
            <g id="Group-8" transform="translate(1046.000000, 461.000000)">
                <g id="Group-5">
                    <g id="Group-6">
                        <g id="Group-2" transform="translate(10.000000, 33.000000)">
                            <g id="iconfinder_Google_Chrome_1298719" transform="translate(31.000000, 16.000000)">
                                <rect id="Rectangle" x="0" y="0" width="28" height="28"></rect>
                                <g id="Google_Chrome_1_">
                                    <path d="M3.3805625,4.87746875 C9.8888125,-2.69696875 21.9561563,-1.2018125 26.4674375,7.64596875 C23.2918438,7.6470625 18.319,7.64509375 15.62575,7.64596875 C13.6723125,7.646625 12.4112187,7.60221875 11.0453438,8.32125 C9.43971875,9.1665 8.2280625,10.7331875 7.80521875,12.5735313 L3.3805625,4.87746875 Z" id="Path" fill="#EA4335"></path>
                                    <path d="M9.342375,13.9995625 C9.342375,16.5665938 11.4296875,18.6552188 13.9954063,18.6552188 C16.5609063,18.6552188 18.6482188,16.5668125 18.6482188,13.9995625 C18.6482188,11.4325313 16.5609063,9.34390625 13.9954063,9.34390625 C11.4296875,9.34390625 9.342375,11.4325313 9.342375,13.9995625 Z" id="Path" fill="#4285F4"></path>
                                    <path d="M15.8011875,20.0932812 C13.1895312,20.8694062 10.133375,20.008625 8.45928125,17.1189375 C7.18134375,14.9132812 3.8049375,9.0313125 2.27040625,6.356875 C-3.10428125,14.5947812 1.52796875,25.8208125 11.2855312,27.7368437 L15.8011875,20.0932812 Z" id="Path" fill="#34A853"></path>
                                    <path d="M18.3174688,9.34390625 C20.4927188,11.3669062 20.9665313,14.6429062 19.4930313,17.1830312 C18.382875,19.096875 14.84,25.076625 13.1228125,27.9722187 C23.176125,28.5919375 30.5049063,18.739 27.1945625,9.34390625 L18.3174688,9.34390625 Z" id="Path" fill="#FBBC05"></path>
                                </g>
                            </g>
                        </g>
                    </g>
                </g>
            </g>
        </g>
    </g>
</svg>